<?xml version="1.0" encoding="UTF-8"?>
<!-- Generator: Adobe Illustrator 24.3.0, SVG Export Plug-In . SVG Version: 6.00 Build 0)  -->
<svg version="1.1" xmlns="http://www.w3.org/2000/svg" xmlns:xlink="http://www.w3.org/1999/xlink" x="0px" y="0px" width="1200px" height="250px" viewBox="0 0 1200 250" enable-background="new 0 0 1200 250" xml:space="preserve">
<g id="_x32_">
</g>
<g id="_x31_">
	<g>
		<g>
			<path fill="#ED248E" d="M177.212,18.426H97.851c-36.944,0-66.894,29.949-66.894,66.894v79.362     c0,36.944,29.949,66.894,66.894,66.894h79.362c36.944,0,66.894-29.949,66.894-66.894V85.319     C244.106,48.375,214.157,18.426,177.212,18.426z"/>
			<path fill="#FFFFFF" d="M141.425,185.713c39.835,0,72.128-26.383,72.128-59.872c0-33.49-32.293-60.638-72.128-60.638     S69.298,92.351,69.298,125.84c0,0.504,0.008,1.007,0.024,1.508c0.038,1.244-0.484,2.471-1.506,3.181     c-0.261,0.181-0.533,0.323-0.815,0.417c-3.447,1.149-4.085-0.128-5.745,0.766c-1.66,0.894-2.936,2.426,1.277,11.617     c4.213,9.192,17.66,29.874,51.925,38.768C127.893,185.585,141.425,185.713,141.425,185.713z"/>
			<g>
				<g>
					<path fill="#ED248E" d="M105.277,129.307c-5.901,0-11.001-2.913-13.737-5.438c-1.42-1.311-1.509-3.525-0.198-4.946       c1.307-1.416,3.513-1.509,4.935-0.208c0.923,0.833,9.164,7.811,17.669-0.331c1.397-1.336,3.612-1.288,4.949,0.108       c1.336,1.396,1.288,3.612-0.108,4.949C114.263,127.773,109.559,129.307,105.277,129.307z"/>
				</g>
				<g>
					<path fill="#ED248E" d="M180.167,129.307c-5.901,0-11.001-2.913-13.737-5.438c-1.42-1.311-1.509-3.525-0.198-4.946       c1.307-1.416,3.514-1.509,4.935-0.208c0.927,0.836,9.167,7.808,17.669-0.332c1.397-1.336,3.612-1.288,4.949,0.108       c1.336,1.396,1.288,3.612-0.108,4.949C189.153,127.773,184.449,129.307,180.167,129.307z"/>
				</g>
				<g>
					<path fill="#ED248E" d="M151.989,149.011c-4.231,0-7.569-1.908-9.734-3.649c-2.165,1.741-5.503,3.649-9.734,3.649       c-8.745,0-12.605-6.516-12.765-6.793c-0.966-1.674-0.393-3.815,1.282-4.781c1.677-0.968,3.815-0.392,4.781,1.282       c0.059,0.093,2.09,3.292,6.703,3.292c4.07,0,6.92-3.626,6.949-3.663c0.663-0.857,1.694-1.37,2.777-1.37       c0.009,0,0.017,0,0.025,0c1.093,0.008,2.127,0.515,2.783,1.39c0.013,0.017,2.863,3.643,6.934,3.643       c4.612,0,6.644-3.199,6.728-3.335c0.966-1.675,3.094-2.226,4.768-1.261c1.674,0.966,2.235,3.128,1.269,4.803       C164.595,142.495,160.734,149.011,151.989,149.011z"/>
				</g>
			</g>
		</g>
		<g>
			<path d="M281.861,162.575c-5.792-6.454-8.688-14.933-8.688-25.431V80.491h24.616v57.016c0,3.981,0.996,7.212,2.987,9.684     c1.991,2.475,4.615,3.71,7.874,3.71h10.498c3.982,0,7.602-1.657,10.86-4.978c3.258-3.317,5.549-7.692,6.878-13.122v-52.31h24.616     v90.32h-22.806v-11.584c-2.777,3.863-6.185,7-10.227,9.412c-4.044,2.412-7.936,3.62-11.674,3.62h-11.946     C295.314,172.259,287.653,169.031,281.861,162.575z"/>
			<path d="M391.003,156.692l-18.281-76.202h25.521l11.041,57.377h0.362l19.729-55.206h9.594c2.774,0,5.006,0.605,6.696,1.811     c1.688,1.208,3.016,3.077,3.982,5.611l16.833,47.784h0.362l10.859-57.377h25.521l-17.919,76.202     c-2.172,9.412-7.362,14.118-15.566,14.118h-11.222l-20.091-57.197l-20.815,57.197h-11.041     C398.483,170.811,393.293,166.104,391.003,156.692z"/>
			<path d="M522.045,162.575c-5.792-6.454-8.688-14.933-8.688-25.431V80.491h24.616v57.016c0,3.981,0.995,7.212,2.986,9.684     c1.991,2.475,4.615,3.71,7.873,3.71h10.498c3.982,0,7.603-1.657,10.86-4.978c3.258-3.317,5.549-7.692,6.878-13.122v-52.31h24.616     v90.32h-22.806v-11.584c-2.776,3.863-6.185,7-10.227,9.412c-4.044,2.412-7.936,3.62-11.674,3.62h-11.946     C535.499,172.259,527.837,169.031,522.045,162.575z"/>
		</g>
		<g>
			<path d="M744.33,86.736c4.644,5.13,6.969,12.217,6.969,21.268v62.807h-13.032v-63.169c0-5.309-1.208-9.472-3.62-12.489     c-2.416-3.015-5.611-4.524-9.594-4.524h-10.316c-5.189,0-9.475,1.75-12.852,5.249c-3.379,3.501-5.552,8.447-6.516,14.842v60.092     h-13.032v-62.083c0-5.67-1.117-10.104-3.349-13.304c-2.234-3.195-5.28-4.796-9.141-4.796h-10.316     c-4.949,0-9.293,2.172-13.032,6.516c-3.741,4.344-6.095,10.018-7.059,17.014v56.654h-13.032v-90.32h12.67v13.032     c2.412-4.584,5.43-8.145,9.05-10.679s7.421-3.801,11.403-3.801h10.679c5.068,0,9.44,1.238,13.123,3.71     c3.679,2.475,6.484,6.063,8.416,10.77c2.774-4.824,6.092-8.444,9.955-10.86c3.86-2.412,8.083-3.619,12.67-3.619h11.041     C733.379,79.043,739.684,81.608,744.33,86.736z"/>
			<path d="M781.615,165.381c-5.249-4.585-7.873-10.738-7.873-18.462v-5.792c0-7.603,2.715-13.694,8.145-18.282     c5.43-4.585,12.607-6.878,21.539-6.878h11.584c3.982,0,8.083,0.605,12.308,1.81c4.223,1.208,7.843,2.837,10.86,4.887v-15.022     c0-5.068-1.569-9.2-4.706-12.398c-3.139-3.196-7.302-4.797-12.489-4.797h-14.479c-5.189,0-9.353,1.208-12.489,3.62     c-3.139,2.415-4.706,5.611-4.706,9.593h-13.032c0-7.358,2.774-13.303,8.326-17.828c5.549-4.525,12.852-6.787,21.901-6.787h14.479     c8.929,0,16.138,2.624,21.63,7.873c5.489,5.249,8.235,12.158,8.235,20.725v63.169H838.54v-12.67     c-2.777,4.344-6.426,7.783-10.951,10.317c-4.524,2.533-9.202,3.801-14.027,3.801h-10.859     C793.893,172.259,786.864,169.968,781.615,165.381z M813.924,160.855c5.67,0,10.738-1.748,15.204-5.249     c4.463-3.498,7.48-8.145,9.05-13.937v-6.697c-2.415-2.291-5.764-4.132-10.045-5.521c-4.285-1.386-8.66-2.082-13.123-2.082     h-11.584c-4.949,0-8.959,1.268-12.036,3.802c-3.077,2.533-4.616,5.854-4.616,9.955v5.792c0,4.225,1.448,7.602,4.345,10.136     c2.896,2.534,6.756,3.801,11.584,3.801H813.924z"/>
			<path d="M876.187,80.491h12.67v13.938c2.413-4.223,6.063-7.661,10.951-10.317c4.887-2.652,9.982-3.981,15.294-3.981h7.964v11.765     h-7.964c-7.724,0-13.968,2.443-18.733,7.33c-4.769,4.888-7.149,11.375-7.149,19.458v52.128h-13.032V80.491z"/>
			<path d="M1000.353,170.811l-35.476-42.716l-12.489,12.489v30.227h-13.032V44.11h13.032v80.545l44.707-44.164h15.928     l-39.096,38.734l41.992,51.585H1000.353z"/>
			<path d="M1031.667,163.299c-6.154-5.973-9.232-13.905-9.232-23.802v-25.883c0-10.376,3.077-18.733,9.232-25.068     s14.299-9.502,24.435-9.502h14.842c9.653,0,17.436,3.076,23.35,9.23c5.91,6.154,8.869,14.299,8.869,24.436v15.928h-67.694v10.859     c0,6.276,1.9,11.375,5.701,15.295c3.802,3.923,8.779,5.883,14.933,5.883h13.756c6.033,0,10.92-1.657,14.661-4.978     c3.739-3.317,5.611-7.752,5.611-13.304h12.67c0,8.932-3.018,16.14-9.05,21.63c-6.035,5.492-13.999,8.235-23.893,8.235h-13.756     C1045.966,172.259,1037.821,169.272,1031.667,163.299z M1090.13,117.416v-4.706c0-6.635-1.751-11.975-5.249-16.019     c-3.501-4.042-8.146-6.063-13.938-6.063h-14.842c-6.153,0-11.131,2.112-14.933,6.335c-3.801,4.225-5.701,9.773-5.701,16.651     v3.802H1090.13z"/>
			<path d="M1138.726,164.656c-4.163-4.101-6.244-10.859-6.244-20.271v-52.31h-15.929V80.491h15.929V53.16h13.031v27.331h23.53     v11.584h-23.53v52.31c0,5.311,1.056,9.112,3.168,11.402c2.109,2.294,5.64,3.439,10.589,3.439h9.773v11.584h-9.773     C1149.735,170.811,1142.889,168.76,1138.726,164.656z"/>
		</g>
	</g>
</g>
</svg>